<?xml version="1.0" standalone="no"?><!DOCTYPE svg PUBLIC "-//W3C//DTD SVG 1.1//EN" "http://www.w3.org/Graphics/SVG/1.1/DTD/svg11.dtd"><svg t="1576901050637" class="icon" viewBox="0 0 1024 1024" version="1.1" xmlns="http://www.w3.org/2000/svg" p-id="4061" xmlns:xlink="http://www.w3.org/1999/xlink" width="200" height="200"><defs><style type="text/css"></style></defs><path d="M631.805108 224.187969l-80.790024-134.585231c-8.40953-15.896038-26.734898-25.76378-47.848775-25.76378-21.112853 0-39.438221 9.867742-48.269353 26.622334 0 0-41.172725 89.86368-67.697845 149.46001-11.131525 24.953322-16.769942 51.493791-16.769942 78.885652l0 567.789631c0 40.556695 33.005718 73.562413 73.563436 73.562413L594.083995 960.158996c26.459628 0 58.412364-22.198581 58.412364-49.712215 0.017396-4.730745 1.76725-473.833749 0.762363-610.06241C653.063271 273.624914 645.642255 247.261477 631.805108 224.187969zM403.613966 318.807976c0-8.15882 0.809435-16.20303 2.025123-24.167422l86.429465 29.133527c4.699022 1.450025 9.543354 2.187829 14.372336 2.187829 4.844332 0 9.689686-0.73678 14.404058-2.187829l98.645694-30.753421c0.193405 2.552126 0.550539 5.687536 0.583285 8.255011 0.680499 93.257987 0.080841 343.631338-0.372483 492.962411L403.613966 794.238083 403.613966 318.807976zM484.64549 105.126292c2.576685-4.844332 10.014074-8.101515 18.520819-8.101515 8.506744 0 15.960507 3.257184 18.957771 8.879228l81.226976 135.362944c3.662413 6.116301 6.514367 12.589736 9.010211 19.208481l-101.384062 31.604812c-2.932796 0.955768-6.092765 0.907673-8.6848 0.121773l-88.276533-29.741371c1.133823-3.021823 2.155083-6.076392 3.483334-9.04091C443.862645 194.22761 484.679259 105.142665 484.64549 105.126292zM594.083995 926.976246 443.992605 926.976246c-22.264073 0-40.378639-18.11559-40.378639-40.378639l0-59.175751 215.97389 0c-0.161682 49.77873-0.275269 82.346473-0.275269 83.57751C619.312586 917.02664 604.729449 926.976246 594.083995 926.976246z" p-id="4062"></path></svg>