<?xml version="1.0" standalone="no"?><!DOCTYPE svg PUBLIC "-//W3C//DTD SVG 1.1//EN" "http://www.w3.org/Graphics/SVG/1.1/DTD/svg11.dtd"><svg t="1576901232452" class="icon" viewBox="0 0 1024 1024" version="1.1" xmlns="http://www.w3.org/2000/svg" p-id="7540" xmlns:xlink="http://www.w3.org/1999/xlink" width="200" height="200"><defs><style type="text/css"></style></defs><path d="M540.096 667.43l-177.14 177.273c-24.471 24.476-57.066 38.051-91.741 38.051s-67.27-13.476-91.74-38.05c-24.471-24.575-38.143-57.077-38.143-91.758 0-34.682 13.473-67.282 38.043-91.758l177.24-177.272c13.969-13.972 13.969-36.565 0-50.437-13.97-13.972-36.558-13.972-50.428 0l-177.24 177.173C90.905 648.702 70 699.24 70 752.946c0 53.707 20.904 104.243 58.948 142.194C168.18 934.38 219.698 954 271.116 954c51.517 0 103.034-19.62 142.168-58.86l177.24-177.272c13.968-13.972 13.968-36.564 0-50.437-13.97-13.873-36.46-13.873-50.428 0zM895.14 128.869c-78.463-78.49-205.965-78.49-284.428 0L433.477 306.165c-13.97 13.974-13.97 36.57 0 50.444 13.968 13.974 36.556 13.974 50.426 0l177.235-177.297c50.625-50.642 132.951-50.642 183.576 0 24.47 24.479 38.043 57.084 38.043 91.77 0 34.687-13.474 67.292-38.043 91.77L667.479 540.15c-13.97 13.974-13.97 36.57 0 50.444C674.414 597.531 683.528 601 692.74 601c9.214 0 18.23-3.469 25.263-10.406L895.24 413.297c78.364-78.392 78.364-206.038-0.099-284.43z m-409.036 461.69L587.49 489.13c14.015-14.02 14.015-36.693 0-50.614-14.015-14.021-36.678-14.021-50.593 0L435.51 539.944c-14.015 14.021-14.015 36.693 0 50.615 6.958 6.96 16.102 10.441 25.346 10.441s18.19-3.48 25.247-10.441z" p-id="7541"></path></svg>