<?xml version="1.0" standalone="no"?><!DOCTYPE svg PUBLIC "-//W3C//DTD SVG 1.1//EN" "http://www.w3.org/Graphics/SVG/1.1/DTD/svg11.dtd"><svg t="1576900847047" class="icon" viewBox="0 0 1024 1024" version="1.1" xmlns="http://www.w3.org/2000/svg" p-id="2373" xmlns:xlink="http://www.w3.org/1999/xlink" width="200" height="200"><defs><style type="text/css"></style></defs><path d="M191.744 339.8144l83.2512 0 0 166.8096-83.2512 0 0-166.8096Z" p-id="2374"></path><path d="M191.744 339.8144l83.2768 0 0 166.8096-83.2768 0 0-166.8096Z" p-id="2375"></path><path d="M386.2784 478.8736l83.2768 0 0 166.5536-83.2768 0 0-166.5536Z" p-id="2376"></path><path d="M386.2784 478.8736l83.2768 0 0 166.5536-83.2768 0 0-166.5536Z" p-id="2377"></path><path d="M580.608 562.1504l83.5584 0 0 166.8096-83.5584 0 0-166.8096Z" p-id="2378"></path><path d="M580.608 562.1504l83.5584 0 0 166.8096-83.5584 0 0-166.8096Z" p-id="2379"></path><path d="M775.1424 367.5904l83.5584 0 0 166.8096-83.5584 0 0-166.8096Z" p-id="2380"></path><path d="M775.1424 367.5904l83.5584 0 0 166.8096-83.5584 0 0-166.8096Z" p-id="2381"></path><path d="M163.9168 534.4l138.9568 0 0-222.3104L163.9168 312.0896 163.9168 534.4zM275.072 506.5984 191.7184 506.5984l0-166.7072 83.3536 0L275.072 506.5984z" p-id="2382"></path><path d="M358.4256 673.28l138.9312 0 0-222.2592-138.9312 0L358.4256 673.28zM469.5552 645.5296l-83.3536 0 0-166.7072 83.3536 0L469.5552 645.5296z" p-id="2383"></path><path d="M552.96 756.6336l138.9056 0 0-222.2336L552.96 534.4 552.96 756.6336zM664.0384 728.9088l-83.3536 0L580.6848 562.176l83.3536 0L664.0384 728.9088z" p-id="2384"></path><path d="M747.4432 562.1248l138.9056 0 0-222.2336-138.9056 0L747.4432 562.1248zM858.5472 534.4l-83.3536 0 0-166.7328 83.3536 0L858.5472 534.4z" p-id="2385"></path><path d="M219.52 173.184l27.776 0 0 27.776-27.776 0 0-27.776Z" p-id="2386"></path><path d="M414.0032 173.184l27.776 0 0 27.776-27.776 0 0-27.776Z" p-id="2387"></path><path d="M608.512 173.184l27.8016 0 0 27.776-27.8016 0 0-27.776Z" p-id="2388"></path><path d="M802.9952 173.184l27.8016 0 0 27.776-27.8016 0 0-27.776Z" p-id="2389"></path><path d="M219.52 228.7616l27.776 0 0 83.3536-27.776 0 0-83.3536Z" p-id="2390"></path><path d="M414.0032 228.7616l27.776 0 0 222.2848-27.776 0 0-222.2848Z" p-id="2391"></path><path d="M608.512 228.7616l27.8016 0 0 305.6384-27.8016 0 0-305.6384Z" p-id="2392"></path><path d="M802.9952 228.7616l27.8016 0 0 111.1552-27.8016 0 0-111.1552Z" p-id="2393"></path><path d="M802.9952 562.176l27.8016 0 0 277.8624-27.8016 0 0-277.8624Z" p-id="2394"></path><path d="M414.0032 673.3312l27.776 0 0 166.7072-27.776 0 0-166.7072Z" p-id="2395"></path><path d="M219.52 534.4l27.776 0 0 305.6128-27.776 0 0-305.6128Z" p-id="2396"></path></svg>