<?xml version="1.0" standalone="no"?><!DOCTYPE svg PUBLIC "-//W3C//DTD SVG 1.1//EN" "http://www.w3.org/Graphics/SVG/1.1/DTD/svg11.dtd"><svg t="1576901200198" class="icon" viewBox="0 0 1024 1024" version="1.1" xmlns="http://www.w3.org/2000/svg" p-id="6810" xmlns:xlink="http://www.w3.org/1999/xlink" width="200" height="200"><defs><style type="text/css"></style></defs><path d="M986.935432 189.364981c-4.846477-11.288253-14.964507-19.454566-27.066564-21.82934-2.310154-0.455367-4.684928-0.650236-7.026382-0.650236-9.726273 0-19.160749 3.805494-26.18814 10.832886L811.978623 292.231454c-1.918397 1.919407-4.619298 3.122949-7.579688 3.122949-2.9927 0-5.693601-1.203542-7.613008-3.122949l-64.446027-64.380398c-1.951717-1.951717-3.155258-4.620308-3.155258-7.580698 0-2.96039 1.203542-5.660281 3.155258-7.579688L847.015622 98.178517c8.685291-8.71861 12.524104-21.145785 10.14933-33.215532-2.310154-12.068737-10.507768-22.185758-21.79602-27.000935-33.44271-14.281962-68.544329-21.470903-102.898783-21.470903-57.970932 0-113.763979 20.526849-155.664801 62.330742-41.023408 41.022398-61.712816 95.449344-62.460991 152.184425-0.390747 27.782429 4.131622 56.117155 13.17535 83.704715l-59.241113 59.175484c-0.03231 0.03231-0.065629 0.03231-0.097939 0.06462L301.032732 540.872886c-26.578887-8.65399-53.807001-13.0451-80.614076-13.0451-57.938622 0-113.699359 20.495549-155.567872 62.298432C-1.774139 656.686521-14.429502 758.543312 23.926325 848.266746c4.815177 11.288253 14.965517 19.454566 27.066564 21.82934 2.310154 0.455367 4.684928 0.650236 7.026382 0.650236 9.727283 0 19.160749-3.805494 26.18814-10.832886l114.674713-114.512154c1.919407-1.920416 4.619298-3.123958 7.579688-3.123958 2.9927 0 5.692591 1.203542 7.613008 3.123958l64.445018 64.380398c1.952726 1.952726 3.156268 4.620308 3.156268 7.580698 0 2.9927-1.203542 5.660281-3.156268 7.579688L163.846134 939.453209c-8.6863 8.71962-12.525114 21.145785-10.15034 33.215532 2.310154 12.068737 10.507768 22.185758 21.79602 27.033245 33.44271 14.249652 68.545339 21.439602 102.898783 21.439602 57.970932 0 113.763979-20.527859 155.664801-62.331752 41.022398-41.022398 61.712816-95.449344 62.462001-152.184425 0.389738-27.782429-4.131622-56.117155-13.176359-83.704715l59.241113-59.176493c0.03231-0.03231 0.065629-0.03231 0.097939-0.06462L709.828015 496.75884c26.578887 8.65399 53.80801 13.0451 80.614076 13.0451 57.939632 0 113.698349-20.494539 155.566862-62.298432C1012.635895 380.946215 1025.290248 279.088414 986.935432 189.364981L986.935432 189.364981 986.935432 189.364981zM888.13596 405.636995c-27.196813 27.132193-65.031643 42.063381-106.574028 42.063381-19.519186 0-39.26656-3.219878-58.687807-9.531405-6.343836-2.081966-12.915861-3.090639-19.388937-3.090639-9.824213 0-19.519186 2.310154-28.303425 6.766893L439.879248 672.464833c-16.623416 16.623416-22.512895 41.152647-15.225005 63.468654 6.766893 20.690418 10.11803 41.575705 9.693964 61.712816-0.812795 39.818857-15.517813 76.645014-42.22594 103.32184-27.229123 27.196813-65.096263 42.160311-106.671968 42.160311-11.809249 0-23.845676-1.235852-35.817484-3.610625l79.865902-79.767962c13.923524-13.760966 21.601152-32.10892 21.601152-51.693735 0-19.421247-7.580698-37.704581-21.340654-51.432227l-62.462001-62.364062c-13.760966-13.760966-32.04329-21.340654-51.497856-21.340654s-37.737901 7.579688-51.530166 21.340654l-80.09308 79.996151c-10.670327-53.710071 2.9927-106.704277 38.549685-142.261263 27.196813-27.132193 65.031643-42.064391 106.574028-42.064391 19.520196 0 39.26656 3.220888 58.687807 9.564724 6.343836 2.048646 12.914851 3.057319 19.388937 3.057319 16.331618 0 32.271478-6.376146 44.177657-18.250015l219.427273-219.135475c16.623416-16.623416 22.512895-41.152647 15.225005-63.469664-6.766893-20.690418-10.11803-41.575705-9.694973-61.712816 0.812795-39.786547 15.517813-76.612704 42.22695-103.32184 27.229123-27.196813 65.097273-42.16132 106.671968-42.16132 11.809249 0 23.845676 1.236861 35.817484 3.611635l-79.865902 79.767962c-13.923524 13.760966-21.601152 32.109929-21.601152 51.693735 0 19.421247 7.579688 37.704581 21.340654 51.432227l62.460991 62.364062c13.760966 13.760966 32.04329 21.340654 51.497856 21.340654s37.736891-7.579688 51.530166-21.340654l80.09409-79.996151C937.356982 317.085803 923.692946 370.080009 888.13596 405.636995L888.13596 405.636995 888.13596 405.636995z" p-id="6811"></path></svg>