<?xml version="1.0" standalone="no"?><!DOCTYPE svg PUBLIC "-//W3C//DTD SVG 1.1//EN" "http://www.w3.org/Graphics/SVG/1.1/DTD/svg11.dtd"><svg t="1576900808411" class="icon" viewBox="0 0 1024 1024" version="1.1" xmlns="http://www.w3.org/2000/svg" p-id="2146" xmlns:xlink="http://www.w3.org/1999/xlink" width="200" height="200"><defs><style type="text/css"></style></defs><path d="M819.746133 625.060978c23.1424-26.703644 34.144711-50.824533 25.656889-60.984889-5.870933-7.031467-20.024889-6.030222-38.252089 1.194667l-6.417067-30.503822c20.571022-25.7024 29.434311-48.571733 20.6848-59.483022-5.688889-7.088356-17.999644-7.941689-33.9968-3.731911l-16.896-80.236089c99.362133-117.805511 140.424533-215.881956 114.699378-241.607111S761.423644 165.057422 643.618133 264.419556l-80.236089-16.896c4.209778-15.997156 3.356444-28.307911-3.731911-33.9968-10.899911-8.749511-33.769244 0.113778-59.483022 20.6848l-30.503822-6.417067c7.224889-18.215822 8.226133-32.369778 1.194667-38.252089-10.160356-8.487822-34.269867 2.514489-60.984889 25.656889l-120.001422-25.258667-64.364089 64.364089 110.455467 57.048178c-9.4208 21.026133-11.457422 37.614933-3.6864 44.100267 9.102222 7.600356 29.3888-0.4096 52.713244-18.784711l26.953956 13.9264c-9.022578 22.971733-10.148978 41.107911-1.046756 48.412444 10.638222 8.533333 32.6656 0.295822 57.594311-19.205689l37.944889 19.592533c-1.115022 1.262933-2.230044 2.480356-3.345067 3.754667-71.076978 80.9984-134.883556 156.9792-181.4528 219.9552l-128.295822-14.802489-48.275911 48.275911 113.436444 64.386844c-15.519289 31.118222-19.672178 53.521067-8.851911 64.341333 10.820267 10.820267 33.223111 6.667378 64.341333-8.851911l64.386844 113.436444 48.275911-48.275911-14.802489-128.295822c62.987378-46.569244 138.9568-110.375822 219.9552-181.4528 1.274311-1.115022 2.491733-2.230044 3.754667-3.345067l19.592533 37.944889c-19.501511 24.928711-27.739022 46.956089-19.205689 57.594311 7.304533 9.102222 25.440711 7.975822 48.412444-1.046756l13.9264 26.953956c-18.375111 23.324444-26.385067 43.611022-18.784711 52.713244 6.485333 7.771022 23.085511 5.723022 44.100267-3.6864l57.048178 110.455467 64.364089-64.364089L819.746133 625.060978z" p-id="2147"></path></svg>