<?xml version="1.0" standalone="no"?><!DOCTYPE svg PUBLIC "-//W3C//DTD SVG 1.1//EN" "http://www.w3.org/Graphics/SVG/1.1/DTD/svg11.dtd"><svg t="1576901564302" class="icon" viewBox="0 0 1024 1024" version="1.1" xmlns="http://www.w3.org/2000/svg" p-id="8919" xmlns:xlink="http://www.w3.org/1999/xlink" width="200" height="200"><defs><style type="text/css"></style></defs><path d="M512 0C230.4 0 0 230.4 0 512s230.4 512 512 512 512-230.4 512-512S793.6 0 512 0zM512 960c-249.6 0-448-204.8-448-448 0-249.6 204.8-448 448-448s448 204.8 448 448C960 761.6 761.6 960 512 960zM505.6 224c0 0-32 89.6-217.6 83.2l0 192c0 0 0 211.2 217.6 294.4 211.2-83.2 217.6-294.4 217.6-294.4l0-192C537.6 320 505.6 224 505.6 224z" p-id="8920"></path></svg>